<?xml version="1.0" ?><!DOCTYPE svg  PUBLIC '-//W3C//DTD SVG 1.1//EN'  'http://www.w3.org/Graphics/SVG/1.1/DTD/svg11.dtd'><svg enable-background="new 0 0 48 48" height="48px" id="Layer_1" version="1.1" viewBox="0 0 48 48" width="48px" xml:space="preserve" xmlns="http://www.w3.org/2000/svg" xmlns:xlink="http://www.w3.org/1999/xlink"><g id="Layer_4"><polygon fill="#241F20" points="11.849,29.003 12.923,30.077 12.928,30.072 13.997,31.143 23.996,21.144 34.004,31.15    36.15,29.001 36.148,28.998 36.15,28.996 25.176,18.022 25.184,18.015 24.017,16.85 24.01,16.856 24.003,16.85 23.483,17.369    23.479,17.364 11.849,28.993 11.854,28.998  "/><path d="M24,0C10.745,0,0,10.745,0,24s10.745,24,24,24s24-10.745,24-24S37.255,0,24,0z M24,44   C12.954,44,4,35.046,4,24S12.954,4,24,4s20,8.954,20,20S35.046,44,24,44z" fill="#241F20"/></g></svg>